
<svg width="853px" height="260px" viewBox="0 0 853 260" version="1.1" xmlns="http://www.w3.org/2000/svg" xmlns:xlink="http://www.w3.org/1999/xlink">
    <defs></defs>
    <g id="Page-1" stroke="none" stroke-width="1" fill="none" fill-rule="evenodd">
        <rect id="bkgd" stroke-opacity="0" stroke="#09819C" x="0.5" y="0.5" width="852" height="259"></rect>
        <g id="chart" transform="translate(10.000000, 10.000000)">
            <g id="graph" transform="translate(54.000000, 16.000000)" fill-rule="nonzero">
                <g id="y" opacity="0.25" transform="translate(0.203125, 0.996866)" fill="#A5BCC7">
                    <polygon id="Line-Copy-2" points="56.296875 0.501933759 57.296875 0.501933759 57.296875 181.501934 56.296875 181.501934"></polygon>
                    <polygon id="Line-Copy-3" points="112.296875 0.501933759 113.296875 0.501933759 113.296875 181.501934 112.296875 181.501934"></polygon>
                    <polygon id="Line-Copy-4" points="168.296875 0.501933759 169.296875 0.501933759 169.296875 181.501934 168.296875 181.501934"></polygon>
                    <polygon id="Line-Copy-5" points="224.296875 0.501933759 225.296875 0.501933759 225.296875 181.501934 224.296875 181.501934"></polygon>
                    <polygon id="Line-Copy-6" points="280.296875 0.501933759 281.296875 0.501933759 281.296875 181.501934 280.296875 181.501934"></polygon>
                    <polygon id="Line-Copy-7" points="336.296875 0.501933759 337.296875 0.501933759 337.296875 181.501934 336.296875 181.501934"></polygon>
                    <polygon id="Line-Copy-8" points="392.296875 0.501933759 393.296875 0.501933759 393.296875 181.501934 392.296875 181.501934"></polygon>
                    <polygon id="Line-Copy-9" points="448.296875 0.501933759 449.296875 0.501933759 449.296875 181.501934 448.296875 181.501934"></polygon>
                    <polygon id="Line-Copy-10" points="504.296875 0.501933759 505.296875 0.501933759 505.296875 181.501934 504.296875 181.501934"></polygon>
                    <polygon id="Line-Copy-11" points="560.296875 0.501933759 561.296875 0.501933759 561.296875 181.501934 560.296875 181.501934"></polygon>
                    <polygon id="Line-Copy-12" points="616.296875 0.501933759 617.296875 0.501933759 617.296875 181.501934 616.296875 181.501934"></polygon>
                    <polygon id="Line-Copy-13" points="672.296875 0.501933759 673.296875 0.501933759 673.296875 181.501934 672.296875 181.501934"></polygon>
                </g>
                <polygon id="Line-Copy" fill="#425866" points="2 181 674 181 674 183 0 183 0 1 2 1"></polygon>
            </g>
            <g id="labels" fill="#B6C3CC">
                <g id="timeline" transform="translate(55.000000, 208.000000)">
                    <path d="M3.372,9 L1.188,9 C1.032,9 0.972,8.94 0.972,8.784 L0.972,1.272 C0.972,1.116 1.032,1.056 1.188,1.056 L3.372,1.056 C6.144,1.056 7.188,3.012 7.188,5.028 C7.188,7.044 6.144,9 3.372,9 Z M3.324,1.872 L1.956,1.872 L1.956,8.184 L3.324,8.184 C5.34,8.184 6.18,6.876 6.18,5.028 C6.18,3.18 5.34,1.872 3.324,1.872 Z M13.176,9 L8.928,9 C8.772,9 8.712,8.94 8.712,8.784 L8.712,1.272 C8.712,1.116 8.772,1.056 8.928,1.056 L13.176,1.056 C13.332,1.056 13.392,1.116 13.392,1.272 L13.392,1.656 C13.392,1.812 13.332,1.872 13.176,1.872 L9.696,1.872 L9.696,4.464 L12.792,4.464 C12.948,4.464 13.008,4.524 13.008,4.68 L13.008,5.064 C13.008,5.22 12.948,5.28 12.792,5.28 L9.696,5.28 L9.696,8.184 L13.176,8.184 C13.332,8.184 13.392,8.244 13.392,8.4 L13.392,8.784 C13.392,8.94 13.332,9 13.176,9 Z M20.58,8.256 C19.908,8.856 19.032,9.12 18.096,9.12 C15.528,9.12 14.556,7.08 14.556,5.016 C14.556,2.952 15.528,0.936 18.108,0.936 C19.02,0.936 19.848,1.176 20.496,1.716 C20.604,1.812 20.616,1.908 20.52,2.028 L20.244,2.376 C20.148,2.508 20.052,2.508 19.932,2.412 C19.464,2.04 18.84,1.788 18.084,1.788 C16.308,1.788 15.564,3.18 15.564,5.016 C15.564,6.852 16.308,8.268 18.084,8.268 C18.876,8.268 19.548,7.98 20.04,7.56 C20.148,7.464 20.244,7.476 20.328,7.596 L20.604,7.944 C20.7,8.064 20.688,8.16 20.58,8.256 Z" id="Dec"></path>
                    <path d="M60.524,6.372 C60.524,8.1 59.648,9.12 58.112,9.12 C57.38,9.12 56.78,8.892 56.396,8.556 C56.288,8.472 56.276,8.364 56.348,8.244 L56.588,7.896 C56.684,7.764 56.756,7.752 56.876,7.848 C57.176,8.1 57.596,8.28 58.088,8.28 C59.024,8.28 59.54,7.596 59.54,6.324 L59.54,1.272 C59.54,1.116 59.6,1.056 59.756,1.056 L60.308,1.056 C60.464,1.056 60.524,1.116 60.524,1.272 L60.524,6.372 Z M62.36,9 L61.82,9 C61.7,9 61.64,8.952 61.64,8.88 C61.64,8.832 61.652,8.784 61.664,8.748 C62.492,5.952 63.368,3.456 64.424,1.248 C64.496,1.104 64.58,1.056 64.736,1.056 L65.168,1.056 C65.324,1.056 65.408,1.104 65.48,1.248 C66.488,3.384 67.46,5.976 68.24,8.7 C68.264,8.784 68.276,8.82 68.276,8.856 C68.276,8.952 68.216,9 68.084,9 L67.52,9 C67.364,9 67.28,8.94 67.244,8.796 C67.04,8.064 66.86,7.476 66.68,6.84 L63.188,6.84 C62.996,7.476 62.828,8.076 62.624,8.82 C62.588,8.964 62.516,9 62.36,9 Z M66.416,6.048 C65.948,4.596 65.444,3.264 64.928,2.088 C64.412,3.264 63.92,4.596 63.452,6.048 L66.416,6.048 Z M70.268,9 L69.8,9 C69.644,9 69.584,8.94 69.584,8.784 L69.584,1.272 C69.584,1.116 69.644,1.056 69.8,1.056 L70.472,1.056 C70.628,1.056 70.724,1.104 70.796,1.236 L74.78,7.752 L74.78,1.272 C74.78,1.116 74.84,1.056 74.996,1.056 L75.464,1.056 C75.62,1.056 75.68,1.116 75.68,1.272 L75.68,8.784 C75.68,8.94 75.62,9 75.464,9 L74.792,9 C74.636,9 74.54,8.952 74.468,8.82 L70.484,2.304 L70.484,8.784 C70.484,8.94 70.424,9 70.268,9 Z" id="Jan"></path>
                    <path d="M113.74,9 L113.188,9 C113.032,9 112.972,8.94 112.972,8.784 L112.972,1.272 C112.972,1.116 113.032,1.056 113.188,1.056 L117.352,1.056 C117.508,1.056 117.568,1.116 117.568,1.272 L117.568,1.656 C117.568,1.812 117.508,1.872 117.352,1.872 L113.956,1.872 L113.956,4.668 L116.896,4.668 C117.052,4.668 117.112,4.728 117.112,4.884 L117.112,5.268 C117.112,5.424 117.052,5.484 116.896,5.484 L113.956,5.484 L113.956,8.784 C113.956,8.94 113.896,9 113.74,9 Z M123.46,9 L119.212,9 C119.056,9 118.996,8.94 118.996,8.784 L118.996,1.272 C118.996,1.116 119.056,1.056 119.212,1.056 L123.46,1.056 C123.616,1.056 123.676,1.116 123.676,1.272 L123.676,1.656 C123.676,1.812 123.616,1.872 123.46,1.872 L119.98,1.872 L119.98,4.464 L123.076,4.464 C123.232,4.464 123.292,4.524 123.292,4.68 L123.292,5.064 C123.292,5.22 123.232,5.28 123.076,5.28 L119.98,5.28 L119.98,8.184 L123.46,8.184 C123.616,8.184 123.676,8.244 123.676,8.4 L123.676,8.784 C123.676,8.94 123.616,9 123.46,9 Z M128.008,9 L125.536,9 C125.38,9 125.32,8.94 125.32,8.784 L125.32,1.272 C125.32,1.116 125.38,1.056 125.536,1.056 L127.66,1.056 C129.592,1.056 130.348,2.004 130.348,3.132 C130.348,3.888 130.024,4.536 129.232,4.896 C130.276,5.196 130.72,5.94 130.72,6.84 C130.72,7.968 129.952,9 128.008,9 Z M126.304,5.364 L126.304,8.184 L128.044,8.184 C129.268,8.184 129.712,7.548 129.712,6.792 C129.712,6.024 129.292,5.364 128.068,5.364 L126.304,5.364 Z M126.304,1.872 L126.304,4.572 L127.708,4.572 C128.92,4.572 129.34,3.948 129.34,3.204 C129.34,2.472 128.92,1.872 127.72,1.872 L126.304,1.872 Z" id="Feb"></path>
                    <path d="M169.656,9 L169.188,9 C169.032,9 168.972,8.94 168.972,8.784 L168.972,1.272 C168.972,1.116 169.032,1.056 169.188,1.056 L169.932,1.056 C170.088,1.056 170.172,1.104 170.256,1.248 L172.68,5.484 L175.116,1.248 C175.2,1.104 175.284,1.056 175.44,1.056 L176.136,1.056 C176.292,1.056 176.352,1.116 176.352,1.272 L176.352,8.784 C176.352,8.94 176.292,9 176.136,9 L175.668,9 C175.512,9 175.452,8.94 175.452,8.784 L175.452,2.232 L173.064,6.396 C172.98,6.54 172.896,6.588 172.74,6.588 L172.584,6.588 C172.428,6.588 172.344,6.54 172.26,6.396 L169.872,2.232 L169.872,8.784 C169.872,8.94 169.812,9 169.656,9 Z M178.38,9 L177.84,9 C177.72,9 177.66,8.952 177.66,8.88 C177.66,8.832 177.672,8.784 177.684,8.748 C178.512,5.952 179.388,3.456 180.444,1.248 C180.516,1.104 180.6,1.056 180.756,1.056 L181.188,1.056 C181.344,1.056 181.428,1.104 181.5,1.248 C182.508,3.384 183.48,5.976 184.26,8.7 C184.284,8.784 184.296,8.82 184.296,8.856 C184.296,8.952 184.236,9 184.104,9 L183.54,9 C183.384,9 183.3,8.94 183.264,8.796 C183.06,8.064 182.88,7.476 182.7,6.84 L179.208,6.84 C179.016,7.476 178.848,8.076 178.644,8.82 C178.608,8.964 178.536,9 178.38,9 Z M182.436,6.048 C181.968,4.596 181.464,3.264 180.948,2.088 C180.432,3.264 179.94,4.596 179.472,6.048 L182.436,6.048 Z M186.372,9 L185.82,9 C185.664,9 185.604,8.94 185.604,8.784 L185.604,1.272 C185.604,1.116 185.664,1.056 185.82,1.056 L187.944,1.056 C189.984,1.056 190.74,2.172 190.74,3.384 C190.74,4.44 190.104,5.34 188.832,5.616 C189.864,6.468 190.632,7.752 191.064,8.796 C191.124,8.928 191.076,9 190.932,9 L190.284,9 C190.128,9 190.044,8.952 189.984,8.796 C189.624,7.92 188.904,6.684 187.788,5.76 L186.588,5.76 L186.588,8.784 C186.588,8.94 186.528,9 186.372,9 Z M186.588,1.872 L186.588,4.944 L187.98,4.944 C189.3,4.944 189.732,4.26 189.732,3.42 C189.732,2.58 189.312,1.872 187.992,1.872 L186.588,1.872 Z" id="Mar"></path>
                    <path d="M225.056,9 L224.516,9 C224.396,9 224.336,8.952 224.336,8.88 C224.336,8.832 224.348,8.784 224.36,8.748 C225.188,5.952 226.064,3.456 227.12,1.248 C227.192,1.104 227.276,1.056 227.432,1.056 L227.864,1.056 C228.02,1.056 228.104,1.104 228.176,1.248 C229.184,3.384 230.156,5.976 230.936,8.7 C230.96,8.784 230.972,8.82 230.972,8.856 C230.972,8.952 230.912,9 230.78,9 L230.216,9 C230.06,9 229.976,8.94 229.94,8.796 C229.736,8.064 229.556,7.476 229.376,6.84 L225.884,6.84 C225.692,7.476 225.524,8.076 225.32,8.82 C225.284,8.964 225.212,9 225.056,9 Z M229.112,6.048 C228.644,4.596 228.14,3.264 227.624,2.088 C227.108,3.264 226.616,4.596 226.148,6.048 L229.112,6.048 Z M233.048,9 L232.496,9 C232.34,9 232.28,8.94 232.28,8.784 L232.28,1.272 C232.28,1.116 232.34,1.056 232.496,1.056 L234.704,1.056 C236.732,1.056 237.5,2.256 237.5,3.552 C237.5,4.884 236.672,6.084 234.716,6.084 L233.264,6.084 L233.264,8.784 C233.264,8.94 233.204,9 233.048,9 Z M233.264,1.872 L233.264,5.268 L234.656,5.268 C236.06,5.268 236.492,4.5 236.492,3.576 C236.492,2.652 236.036,1.872 234.656,1.872 L233.264,1.872 Z M239.588,9 L239.036,9 C238.88,9 238.82,8.94 238.82,8.784 L238.82,1.272 C238.82,1.116 238.88,1.056 239.036,1.056 L241.16,1.056 C243.2,1.056 243.956,2.172 243.956,3.384 C243.956,4.44 243.32,5.34 242.048,5.616 C243.08,6.468 243.848,7.752 244.28,8.796 C244.34,8.928 244.292,9 244.148,9 L243.5,9 C243.344,9 243.26,8.952 243.2,8.796 C242.84,7.92 242.12,6.684 241.004,5.76 L239.804,5.76 L239.804,8.784 C239.804,8.94 239.744,9 239.588,9 Z M239.804,1.872 L239.804,4.944 L241.196,4.944 C242.516,4.944 242.948,4.26 242.948,3.42 C242.948,2.58 242.528,1.872 241.208,1.872 L239.804,1.872 Z" id="Apr"></path>
                    <path d="M281.656,9 L281.188,9 C281.032,9 280.972,8.94 280.972,8.784 L280.972,1.272 C280.972,1.116 281.032,1.056 281.188,1.056 L281.932,1.056 C282.088,1.056 282.172,1.104 282.256,1.248 L284.68,5.484 L287.116,1.248 C287.2,1.104 287.284,1.056 287.44,1.056 L288.136,1.056 C288.292,1.056 288.352,1.116 288.352,1.272 L288.352,8.784 C288.352,8.94 288.292,9 288.136,9 L287.668,9 C287.512,9 287.452,8.94 287.452,8.784 L287.452,2.232 L285.064,6.396 C284.98,6.54 284.896,6.588 284.74,6.588 L284.584,6.588 C284.428,6.588 284.344,6.54 284.26,6.396 L281.872,2.232 L281.872,8.784 C281.872,8.94 281.812,9 281.656,9 Z M290.38,9 L289.84,9 C289.72,9 289.66,8.952 289.66,8.88 C289.66,8.832 289.672,8.784 289.684,8.748 C290.512,5.952 291.388,3.456 292.444,1.248 C292.516,1.104 292.6,1.056 292.756,1.056 L293.188,1.056 C293.344,1.056 293.428,1.104 293.5,1.248 C294.508,3.384 295.48,5.976 296.26,8.7 C296.284,8.784 296.296,8.82 296.296,8.856 C296.296,8.952 296.236,9 296.104,9 L295.54,9 C295.384,9 295.3,8.94 295.264,8.796 C295.06,8.064 294.88,7.476 294.7,6.84 L291.208,6.84 C291.016,7.476 290.848,8.076 290.644,8.82 C290.608,8.964 290.536,9 290.38,9 Z M294.436,6.048 C293.968,4.596 293.464,3.264 292.948,2.088 C292.432,3.264 291.94,4.596 291.472,6.048 L294.436,6.048 Z M299.536,9 L298.984,9 C298.828,9 298.768,8.94 298.768,8.784 L298.768,6.18 C297.904,4.86 296.872,2.976 296.248,1.26 C296.2,1.128 296.248,1.056 296.392,1.056 L296.992,1.056 C297.148,1.056 297.232,1.116 297.28,1.26 C297.832,2.784 298.612,4.368 299.296,5.4 C299.968,4.368 300.736,2.784 301.3,1.26 C301.348,1.116 301.432,1.056 301.588,1.056 L302.128,1.056 C302.272,1.056 302.32,1.128 302.272,1.26 C301.648,2.976 300.628,4.848 299.752,6.168 L299.752,8.784 C299.752,8.94 299.692,9 299.536,9 Z" id="May"></path>
                    <path d="M340.524,6.372 C340.524,8.1 339.648,9.12 338.112,9.12 C337.38,9.12 336.78,8.892 336.396,8.556 C336.288,8.472 336.276,8.364 336.348,8.244 L336.588,7.896 C336.684,7.764 336.756,7.752 336.876,7.848 C337.176,8.1 337.596,8.28 338.088,8.28 C339.024,8.28 339.54,7.596 339.54,6.324 L339.54,1.272 C339.54,1.116 339.6,1.056 339.756,1.056 L340.308,1.056 C340.464,1.056 340.524,1.116 340.524,1.272 L340.524,6.372 Z M348.18,5.928 C348.18,7.992 347.076,9.12 345.24,9.12 C343.404,9.12 342.3,7.992 342.3,5.928 L342.3,1.272 C342.3,1.116 342.36,1.056 342.516,1.056 L343.068,1.056 C343.224,1.056 343.284,1.116 343.284,1.272 L343.284,5.964 C343.284,7.5 344.016,8.292 345.24,8.292 C346.464,8.292 347.196,7.5 347.196,5.964 L347.196,1.272 C347.196,1.116 347.256,1.056 347.412,1.056 L347.964,1.056 C348.12,1.056 348.18,1.116 348.18,1.272 L348.18,5.928 Z M350.712,9 L350.244,9 C350.088,9 350.028,8.94 350.028,8.784 L350.028,1.272 C350.028,1.116 350.088,1.056 350.244,1.056 L350.916,1.056 C351.072,1.056 351.168,1.104 351.24,1.236 L355.224,7.752 L355.224,1.272 C355.224,1.116 355.284,1.056 355.44,1.056 L355.908,1.056 C356.064,1.056 356.124,1.116 356.124,1.272 L356.124,8.784 C356.124,8.94 356.064,9 355.908,9 L355.236,9 C355.08,9 354.984,8.952 354.912,8.82 L350.928,2.304 L350.928,8.784 C350.928,8.94 350.868,9 350.712,9 Z M362.532,9 L358.284,9 C358.128,9 358.068,8.94 358.068,8.784 L358.068,1.272 C358.068,1.116 358.128,1.056 358.284,1.056 L362.532,1.056 C362.688,1.056 362.748,1.116 362.748,1.272 L362.748,1.656 C362.748,1.812 362.688,1.872 362.532,1.872 L359.052,1.872 L359.052,4.464 L362.148,4.464 C362.304,4.464 362.364,4.524 362.364,4.68 L362.364,5.064 C362.364,5.22 362.304,5.28 362.148,5.28 L359.052,5.28 L359.052,8.184 L362.532,8.184 C362.688,8.184 362.748,8.244 362.748,8.4 L362.748,8.784 C362.748,8.94 362.688,9 362.532,9 Z" id="June"></path>
                    <path d="M396.524,6.372 C396.524,8.1 395.648,9.12 394.112,9.12 C393.38,9.12 392.78,8.892 392.396,8.556 C392.288,8.472 392.276,8.364 392.348,8.244 L392.588,7.896 C392.684,7.764 392.756,7.752 392.876,7.848 C393.176,8.1 393.596,8.28 394.088,8.28 C395.024,8.28 395.54,7.596 395.54,6.324 L395.54,1.272 C395.54,1.116 395.6,1.056 395.756,1.056 L396.308,1.056 C396.464,1.056 396.524,1.116 396.524,1.272 L396.524,6.372 Z M404.18,5.928 C404.18,7.992 403.076,9.12 401.24,9.12 C399.404,9.12 398.3,7.992 398.3,5.928 L398.3,1.272 C398.3,1.116 398.36,1.056 398.516,1.056 L399.068,1.056 C399.224,1.056 399.284,1.116 399.284,1.272 L399.284,5.964 C399.284,7.5 400.016,8.292 401.24,8.292 C402.464,8.292 403.196,7.5 403.196,5.964 L403.196,1.272 C403.196,1.116 403.256,1.056 403.412,1.056 L403.964,1.056 C404.12,1.056 404.18,1.116 404.18,1.272 L404.18,5.928 Z M410.276,9 L406.244,9 C406.088,9 406.028,8.94 406.028,8.784 L406.028,1.272 C406.028,1.116 406.088,1.056 406.244,1.056 L406.796,1.056 C406.952,1.056 407.012,1.116 407.012,1.272 L407.012,8.184 L410.276,8.184 C410.432,8.184 410.492,8.244 410.492,8.4 L410.492,8.784 C410.492,8.94 410.432,9 410.276,9 Z M413.432,9 L412.88,9 C412.724,9 412.664,8.94 412.664,8.784 L412.664,6.18 C411.8,4.86 410.768,2.976 410.144,1.26 C410.096,1.128 410.144,1.056 410.288,1.056 L410.888,1.056 C411.044,1.056 411.128,1.116 411.176,1.26 C411.728,2.784 412.508,4.368 413.192,5.4 C413.864,4.368 414.632,2.784 415.196,1.26 C415.244,1.116 415.328,1.056 415.484,1.056 L416.024,1.056 C416.168,1.056 416.216,1.128 416.168,1.26 C415.544,2.976 414.524,4.848 413.648,6.168 L413.648,8.784 C413.648,8.94 413.588,9 413.432,9 Z" id="July"></path>
                    <path d="M449.056,9 L448.516,9 C448.396,9 448.336,8.952 448.336,8.88 C448.336,8.832 448.348,8.784 448.36,8.748 C449.188,5.952 450.064,3.456 451.12,1.248 C451.192,1.104 451.276,1.056 451.432,1.056 L451.864,1.056 C452.02,1.056 452.104,1.104 452.176,1.248 C453.184,3.384 454.156,5.976 454.936,8.7 C454.96,8.784 454.972,8.82 454.972,8.856 C454.972,8.952 454.912,9 454.78,9 L454.216,9 C454.06,9 453.976,8.94 453.94,8.796 C453.736,8.064 453.556,7.476 453.376,6.84 L449.884,6.84 C449.692,7.476 449.524,8.076 449.32,8.82 C449.284,8.964 449.212,9 449.056,9 Z M453.112,6.048 C452.644,4.596 452.14,3.264 451.624,2.088 C451.108,3.264 450.616,4.596 450.148,6.048 L453.112,6.048 Z M461.884,5.928 C461.884,7.992 460.78,9.12 458.944,9.12 C457.108,9.12 456.004,7.992 456.004,5.928 L456.004,1.272 C456.004,1.116 456.064,1.056 456.22,1.056 L456.772,1.056 C456.928,1.056 456.988,1.116 456.988,1.272 L456.988,5.964 C456.988,7.5 457.72,8.292 458.944,8.292 C460.168,8.292 460.9,7.5 460.9,5.964 L460.9,1.272 C460.9,1.116 460.96,1.056 461.116,1.056 L461.668,1.056 C461.824,1.056 461.884,1.116 461.884,1.272 L461.884,5.928 Z M469.612,8.448 C468.856,8.892 467.908,9.12 466.996,9.12 C464.248,9.12 463.312,7.104 463.312,5.088 C463.312,3.024 464.272,0.936 466.888,0.936 C467.812,0.936 468.724,1.2 469.384,1.8 C469.492,1.896 469.504,1.992 469.408,2.112 L469.132,2.46 C469.048,2.58 468.964,2.592 468.844,2.496 C468.364,2.088 467.668,1.788 466.852,1.788 C465.064,1.788 464.32,3.252 464.32,5.088 C464.32,6.936 465.064,8.304 466.996,8.304 C467.56,8.304 468.304,8.184 468.82,7.872 L468.82,5.58 L467.152,5.58 C466.996,5.58 466.936,5.52 466.936,5.364 L466.936,4.98 C466.936,4.824 466.996,4.764 467.152,4.764 L469.576,4.764 C469.732,4.764 469.792,4.824 469.792,4.98 L469.792,8.124 C469.792,8.268 469.732,8.364 469.612,8.448 Z" id="Aug"></path>
                    <path d="M509.736,6.888 C509.736,8.268 508.668,9.12 507.012,9.12 C505.932,9.12 505.128,8.76 504.648,8.328 C504.54,8.232 504.528,8.136 504.612,8.016 L504.9,7.656 C504.996,7.536 505.08,7.524 505.2,7.62 C505.68,8.016 506.268,8.268 507.024,8.268 C508.104,8.268 508.74,7.764 508.74,6.948 C508.74,6.084 508.008,5.772 507.024,5.472 C505.968,5.148 504.624,4.716 504.624,3.156 C504.624,1.764 505.704,0.936 507.324,0.936 C508.284,0.936 509.004,1.224 509.448,1.572 C509.568,1.668 509.58,1.764 509.496,1.884 L509.244,2.244 C509.148,2.364 509.064,2.376 508.944,2.292 C508.536,1.992 508.008,1.788 507.3,1.788 C506.076,1.788 505.62,2.412 505.62,3.108 C505.62,3.972 506.34,4.296 507.324,4.596 C508.38,4.92 509.736,5.34 509.736,6.888 Z M515.7,9 L511.452,9 C511.296,9 511.236,8.94 511.236,8.784 L511.236,1.272 C511.236,1.116 511.296,1.056 511.452,1.056 L515.7,1.056 C515.856,1.056 515.916,1.116 515.916,1.272 L515.916,1.656 C515.916,1.812 515.856,1.872 515.7,1.872 L512.22,1.872 L512.22,4.464 L515.316,4.464 C515.472,4.464 515.532,4.524 515.532,4.68 L515.532,5.064 C515.532,5.22 515.472,5.28 515.316,5.28 L512.22,5.28 L512.22,8.184 L515.7,8.184 C515.856,8.184 515.916,8.244 515.916,8.4 L515.916,8.784 C515.916,8.94 515.856,9 515.7,9 Z M518.328,9 L517.776,9 C517.62,9 517.56,8.94 517.56,8.784 L517.56,1.272 C517.56,1.116 517.62,1.056 517.776,1.056 L519.984,1.056 C522.012,1.056 522.78,2.256 522.78,3.552 C522.78,4.884 521.952,6.084 519.996,6.084 L518.544,6.084 L518.544,8.784 C518.544,8.94 518.484,9 518.328,9 Z M518.544,1.872 L518.544,5.268 L519.936,5.268 C521.34,5.268 521.772,4.5 521.772,3.576 C521.772,2.652 521.316,1.872 519.936,1.872 L518.544,1.872 Z M526.404,9 L525.852,9 C525.696,9 525.636,8.94 525.636,8.784 L525.636,1.872 L523.524,1.872 C523.368,1.872 523.308,1.812 523.308,1.656 L523.308,1.272 C523.308,1.116 523.368,1.056 523.524,1.056 L528.732,1.056 C528.888,1.056 528.948,1.116 528.948,1.272 L528.948,1.656 C528.948,1.812 528.888,1.872 528.732,1.872 L526.62,1.872 L526.62,8.784 C526.62,8.94 526.56,9 526.404,9 Z" id="Sept"></path>
                    <path d="M561.56,5.028 C561.56,6.864 562.424,8.304 564.164,8.304 C565.904,8.304 566.768,6.864 566.768,5.028 C566.768,3.192 565.904,1.752 564.164,1.752 C562.424,1.752 561.56,3.192 561.56,5.028 Z M567.776,5.028 C567.776,7.284 566.456,9.12 564.164,9.12 C561.836,9.12 560.552,7.308 560.552,5.028 C560.552,2.772 561.872,0.936 564.164,0.936 C566.492,0.936 567.776,2.748 567.776,5.028 Z M574.904,8.256 C574.232,8.856 573.356,9.12 572.42,9.12 C569.852,9.12 568.88,7.08 568.88,5.016 C568.88,2.952 569.852,0.936 572.432,0.936 C573.344,0.936 574.172,1.176 574.82,1.716 C574.928,1.812 574.94,1.908 574.844,2.028 L574.568,2.376 C574.472,2.508 574.376,2.508 574.256,2.412 C573.788,2.04 573.164,1.788 572.408,1.788 C570.632,1.788 569.888,3.18 569.888,5.016 C569.888,6.852 570.632,8.268 572.408,8.268 C573.2,8.268 573.872,7.98 574.364,7.56 C574.472,7.464 574.568,7.476 574.652,7.596 L574.928,7.944 C575.024,8.064 575.012,8.16 574.904,8.256 Z M578.768,9 L578.216,9 C578.06,9 578,8.94 578,8.784 L578,1.872 L575.888,1.872 C575.732,1.872 575.672,1.812 575.672,1.656 L575.672,1.272 C575.672,1.116 575.732,1.056 575.888,1.056 L581.096,1.056 C581.252,1.056 581.312,1.116 581.312,1.272 L581.312,1.656 C581.312,1.812 581.252,1.872 581.096,1.872 L578.984,1.872 L578.984,8.784 C578.984,8.94 578.924,9 578.768,9 Z" id="Oct"></path>
                    <path d="M617.656,9 L617.188,9 C617.032,9 616.972,8.94 616.972,8.784 L616.972,1.272 C616.972,1.116 617.032,1.056 617.188,1.056 L617.86,1.056 C618.016,1.056 618.112,1.104 618.184,1.236 L622.168,7.752 L622.168,1.272 C622.168,1.116 622.228,1.056 622.384,1.056 L622.852,1.056 C623.008,1.056 623.068,1.116 623.068,1.272 L623.068,8.784 C623.068,8.94 623.008,9 622.852,9 L622.18,9 C622.024,9 621.928,8.952 621.856,8.82 L617.872,2.304 L617.872,8.784 C617.872,8.94 617.812,9 617.656,9 Z M625.6,5.028 C625.6,6.864 626.464,8.304 628.204,8.304 C629.944,8.304 630.808,6.864 630.808,5.028 C630.808,3.192 629.944,1.752 628.204,1.752 C626.464,1.752 625.6,3.192 625.6,5.028 Z M631.816,5.028 C631.816,7.284 630.496,9.12 628.204,9.12 C625.876,9.12 624.592,7.308 624.592,5.028 C624.592,2.772 625.912,0.936 628.204,0.936 C630.532,0.936 631.816,2.748 631.816,5.028 Z M635.98,9 L635.56,9 C635.404,9 635.32,8.952 635.248,8.808 C634.252,6.696 633.304,4.14 632.608,1.356 C632.596,1.308 632.572,1.236 632.572,1.176 C632.572,1.104 632.62,1.056 632.752,1.056 L633.376,1.056 C633.532,1.056 633.604,1.116 633.64,1.272 C634.216,3.768 634.984,6.012 635.788,7.884 C636.616,6.012 637.372,3.768 637.96,1.272 C637.996,1.116 638.068,1.056 638.224,1.056 L638.788,1.056 C638.908,1.056 638.968,1.092 638.968,1.188 C638.968,1.236 638.944,1.32 638.932,1.368 C638.248,4.14 637.288,6.696 636.292,8.808 C636.22,8.952 636.136,9 635.98,9 Z" id="Nov"></path>
                </g>
                <path d="M30.072,25.028 C29.532,25.688 28.704,26.12 27.624,26.12 C27.084,26.12 26.616,26.012 26.316,25.904 C26.184,25.844 26.148,25.748 26.184,25.616 L26.304,25.244 C26.352,25.088 26.436,25.052 26.58,25.112 C26.892,25.232 27.192,25.304 27.576,25.304 C29.076,25.304 29.952,24.26 30.036,22.28 C29.592,22.736 28.98,23.024 28.164,23.024 C26.7,23.024 25.776,22.064 25.776,20.564 C25.776,19.028 26.724,17.936 28.32,17.936 C29.976,17.936 30.996,19.1 30.996,21.704 C30.996,22.964 30.756,24.188 30.072,25.028 Z M26.724,20.504 C26.724,21.512 27.228,22.244 28.32,22.244 C29.028,22.244 29.676,21.932 30.048,21.548 C30,19.496 29.376,18.716 28.308,18.716 C27.24,18.716 26.724,19.484 26.724,20.504 Z M33.036,22.028 C33.036,23.924 33.564,25.304 34.848,25.304 C36.132,25.304 36.66,23.924 36.66,22.028 C36.66,20.132 36.132,18.752 34.848,18.752 C33.564,18.752 33.036,20.132 33.036,22.028 Z M37.632,22.028 C37.632,24.104 36.924,26.12 34.848,26.12 C32.76,26.12 32.064,24.128 32.064,22.028 C32.064,19.952 32.772,17.936 34.848,17.936 C36.936,17.936 37.632,19.928 37.632,22.028 Z M44.604,26 L43.944,26 C43.788,26 43.704,25.952 43.632,25.808 C43.068,24.608 42.108,23.144 41.088,22.1 C40.74,22.412 40.356,22.688 39.996,22.94 L39.996,25.784 C39.996,25.94 39.936,26 39.78,26 L39.228,26 C39.072,26 39.012,25.94 39.012,25.784 L39.012,18.272 C39.012,18.116 39.072,18.056 39.228,18.056 L39.78,18.056 C39.936,18.056 39.996,18.116 39.996,18.272 L39.996,21.98 C41.208,21.08 42.588,19.4 43.308,18.236 C43.392,18.104 43.476,18.056 43.632,18.056 L44.268,18.056 C44.4,18.056 44.448,18.128 44.376,18.248 C43.716,19.376 42.792,20.516 41.784,21.488 C42.912,22.628 44.112,24.416 44.736,25.796 C44.784,25.928 44.748,26 44.604,26 Z M30.852,58.908 C29.868,60.432 28.692,63.048 28.152,65.784 C28.128,65.94 28.056,66 27.9,66 L27.3,66 C27.156,66 27.096,65.928 27.12,65.784 C27.684,62.928 28.896,60.384 29.88,58.872 L26.316,58.872 C26.16,58.872 26.1,58.812 26.1,58.656 L26.1,58.272 C26.1,58.116 26.16,58.056 26.316,58.056 L30.756,58.056 C30.912,58.056 30.972,58.116 30.972,58.272 L30.972,58.5 C30.972,58.656 30.936,58.776 30.852,58.908 Z M33.036,62.028 C33.036,63.924 33.564,65.304 34.848,65.304 C36.132,65.304 36.66,63.924 36.66,62.028 C36.66,60.132 36.132,58.752 34.848,58.752 C33.564,58.752 33.036,60.132 33.036,62.028 Z M37.632,62.028 C37.632,64.104 36.924,66.12 34.848,66.12 C32.76,66.12 32.064,64.128 32.064,62.028 C32.064,59.952 32.772,57.936 34.848,57.936 C36.936,57.936 37.632,59.928 37.632,62.028 Z M44.604,66 L43.944,66 C43.788,66 43.704,65.952 43.632,65.808 C43.068,64.608 42.108,63.144 41.088,62.1 C40.74,62.412 40.356,62.688 39.996,62.94 L39.996,65.784 C39.996,65.94 39.936,66 39.78,66 L39.228,66 C39.072,66 39.012,65.94 39.012,65.784 L39.012,58.272 C39.012,58.116 39.072,58.056 39.228,58.056 L39.78,58.056 C39.936,58.056 39.996,58.116 39.996,58.272 L39.996,61.98 C41.208,61.08 42.588,59.4 43.308,58.236 C43.392,58.104 43.476,58.056 43.632,58.056 L44.268,58.056 C44.4,58.056 44.448,58.128 44.376,58.248 C43.716,59.376 42.792,60.516 41.784,61.488 C42.912,62.628 44.112,64.416 44.736,65.796 C44.784,65.928 44.748,66 44.604,66 Z M30.912,103.528 C30.912,104.944 30.012,106.12 28.2,106.12 C27.3,106.12 26.592,105.832 26.136,105.46 C26.028,105.364 26.016,105.268 26.1,105.148 L26.316,104.824 C26.4,104.704 26.484,104.692 26.604,104.776 C27.012,105.064 27.564,105.304 28.212,105.304 C29.34,105.304 29.94,104.596 29.94,103.552 C29.94,102.616 29.448,101.896 28.236,101.896 C27.756,101.896 27.324,102.004 26.964,102.184 C26.808,102.256 26.724,102.244 26.58,102.148 L26.436,102.04 C26.304,101.956 26.256,101.86 26.28,101.704 L26.616,98.272 C26.628,98.116 26.7,98.056 26.856,98.056 L30.336,98.056 C30.492,98.056 30.552,98.116 30.552,98.272 L30.552,98.656 C30.552,98.812 30.492,98.872 30.336,98.872 L27.432,98.872 L27.192,101.356 C27.528,101.212 27.936,101.116 28.44,101.116 C30.156,101.116 30.912,102.232 30.912,103.528 Z M33.036,102.028 C33.036,103.924 33.564,105.304 34.848,105.304 C36.132,105.304 36.66,103.924 36.66,102.028 C36.66,100.132 36.132,98.752 34.848,98.752 C33.564,98.752 33.036,100.132 33.036,102.028 Z M37.632,102.028 C37.632,104.104 36.924,106.12 34.848,106.12 C32.76,106.12 32.064,104.128 32.064,102.028 C32.064,99.952 32.772,97.936 34.848,97.936 C36.936,97.936 37.632,99.928 37.632,102.028 Z M44.604,106 L43.944,106 C43.788,106 43.704,105.952 43.632,105.808 C43.068,104.608 42.108,103.144 41.088,102.1 C40.74,102.412 40.356,102.688 39.996,102.94 L39.996,105.784 C39.996,105.94 39.936,106 39.78,106 L39.228,106 C39.072,106 39.012,105.94 39.012,105.784 L39.012,98.272 C39.012,98.116 39.072,98.056 39.228,98.056 L39.78,98.056 C39.936,98.056 39.996,98.116 39.996,98.272 L39.996,101.98 C41.208,101.08 42.588,99.4 43.308,98.236 C43.392,98.104 43.476,98.056 43.632,98.056 L44.268,98.056 C44.4,98.056 44.448,98.128 44.376,98.248 C43.716,99.376 42.792,100.516 41.784,101.488 C42.912,102.628 44.112,104.416 44.736,105.796 C44.784,105.928 44.748,106 44.604,106 Z M30.828,143.624 C30.828,144.98 29.94,146.12 28.128,146.12 C27.216,146.12 26.52,145.832 26.052,145.46 C25.944,145.364 25.932,145.268 26.016,145.148 L26.232,144.824 C26.328,144.704 26.412,144.692 26.532,144.776 C26.928,145.064 27.48,145.304 28.152,145.304 C29.268,145.304 29.856,144.644 29.856,143.624 C29.856,142.676 29.352,141.992 28.116,141.992 L27.9,141.992 C27.756,141.992 27.66,141.956 27.564,141.836 L27.444,141.692 C27.336,141.572 27.336,141.476 27.432,141.356 L29.304,138.872 L26.448,138.872 C26.292,138.872 26.232,138.812 26.232,138.656 L26.232,138.272 C26.232,138.116 26.292,138.056 26.448,138.056 L30.252,138.056 C30.408,138.056 30.468,138.116 30.468,138.272 L30.468,138.476 C30.468,138.632 30.432,138.74 30.336,138.86 L29.232,140.372 C29.088,140.564 28.644,141.092 28.464,141.26 C30.036,141.32 30.828,142.34 30.828,143.624 Z M33.036,142.028 C33.036,143.924 33.564,145.304 34.848,145.304 C36.132,145.304 36.66,143.924 36.66,142.028 C36.66,140.132 36.132,138.752 34.848,138.752 C33.564,138.752 33.036,140.132 33.036,142.028 Z M37.632,142.028 C37.632,144.104 36.924,146.12 34.848,146.12 C32.76,146.12 32.064,144.128 32.064,142.028 C32.064,139.952 32.772,137.936 34.848,137.936 C36.936,137.936 37.632,139.928 37.632,142.028 Z M44.604,146 L43.944,146 C43.788,146 43.704,145.952 43.632,145.808 C43.068,144.608 42.108,143.144 41.088,142.1 C40.74,142.412 40.356,142.688 39.996,142.94 L39.996,145.784 C39.996,145.94 39.936,146 39.78,146 L39.228,146 C39.072,146 39.012,145.94 39.012,145.784 L39.012,138.272 C39.012,138.116 39.072,138.056 39.228,138.056 L39.78,138.056 C39.936,138.056 39.996,138.116 39.996,138.272 L39.996,141.98 C41.208,141.08 42.588,139.4 43.308,138.236 C43.392,138.104 43.476,138.056 43.632,138.056 L44.268,138.056 C44.4,138.056 44.448,138.128 44.376,138.248 C43.716,139.376 42.792,140.516 41.784,141.488 C42.912,142.628 44.112,144.416 44.736,145.796 C44.784,145.928 44.748,146 44.604,146 Z M30.732,186 L26.772,186 C26.616,186 26.556,185.94 26.556,185.784 L26.556,185.4 C26.556,185.244 26.616,185.184 26.772,185.184 L28.332,185.184 L28.332,179.136 L26.868,180.072 C26.748,180.156 26.652,180.132 26.58,180.012 L26.4,179.724 C26.328,179.604 26.34,179.508 26.472,179.424 L28.272,178.176 C28.404,178.092 28.512,178.056 28.668,178.056 L29.064,178.056 C29.22,178.056 29.28,178.116 29.28,178.272 L29.28,185.184 L30.732,185.184 C30.888,185.184 30.948,185.244 30.948,185.4 L30.948,185.784 C30.948,185.94 30.888,186 30.732,186 Z M33.036,182.028 C33.036,183.924 33.564,185.304 34.848,185.304 C36.132,185.304 36.66,183.924 36.66,182.028 C36.66,180.132 36.132,178.752 34.848,178.752 C33.564,178.752 33.036,180.132 33.036,182.028 Z M37.632,182.028 C37.632,184.104 36.924,186.12 34.848,186.12 C32.76,186.12 32.064,184.128 32.064,182.028 C32.064,179.952 32.772,177.936 34.848,177.936 C36.936,177.936 37.632,179.928 37.632,182.028 Z M44.604,186 L43.944,186 C43.788,186 43.704,185.952 43.632,185.808 C43.068,184.608 42.108,183.144 41.088,182.1 C40.74,182.412 40.356,182.688 39.996,182.94 L39.996,185.784 C39.996,185.94 39.936,186 39.78,186 L39.228,186 C39.072,186 39.012,185.94 39.012,185.784 L39.012,178.272 C39.012,178.116 39.072,178.056 39.228,178.056 L39.78,178.056 C39.936,178.056 39.996,178.116 39.996,178.272 L39.996,181.98 C41.208,181.08 42.588,179.4 43.308,178.236 C43.392,178.104 43.476,178.056 43.632,178.056 L44.268,178.056 C44.4,178.056 44.448,178.128 44.376,178.248 C43.716,179.376 42.792,180.516 41.784,181.488 C42.912,182.628 44.112,184.416 44.736,185.796 C44.784,185.928 44.748,186 44.604,186 Z" id="90k-70k-50k-30k-10k"></path>
            </g>
            <g id="legend" transform="translate(745.000000, 8.000000)">
                <rect id="Rectangle-6-Copy-5" stroke="#E2E8ED" x="0.5" y="5.5" width="69" height="17"></rect>
                <rect id="Rectangle-6-Copy-6" stroke="#E2E8ED" x="0.5" y="30.5" width="69" height="17"></rect>
                <rect id="Rectangle-6-Copy-7" stroke="#E2E8ED" x="0.5" y="55.5" width="69" height="17"></rect>
                <path d="M11.56,14.028 C11.56,15.864 12.424,17.304 14.164,17.304 C15.904,17.304 16.768,15.864 16.768,14.028 C16.768,12.192 15.904,10.752 14.164,10.752 C12.424,10.752 11.56,12.192 11.56,14.028 Z M17.776,14.028 C17.776,16.284 16.456,18.12 14.164,18.12 C11.836,18.12 10.552,16.308 10.552,14.028 C10.552,11.772 11.872,9.936 14.164,9.936 C16.492,9.936 17.776,11.748 17.776,14.028 Z M20.068,18 L19.516,18 C19.36,18 19.3,17.94 19.3,17.784 L19.3,10.272 C19.3,10.116 19.36,10.056 19.516,10.056 L20.068,10.056 C20.224,10.056 20.284,10.116 20.284,10.272 L20.284,17.784 C20.284,17.94 20.224,18 20.068,18 Z M26.476,18 L22.444,18 C22.288,18 22.228,17.94 22.228,17.784 L22.228,10.272 C22.228,10.116 22.288,10.056 22.444,10.056 L22.996,10.056 C23.152,10.056 23.212,10.116 23.212,10.272 L23.212,17.184 L26.476,17.184 C26.632,17.184 26.692,17.244 26.692,17.4 L26.692,17.784 C26.692,17.94 26.632,18 26.476,18 Z M20.08,35.056 L20.656,35.056 C20.8,35.056 20.836,35.152 20.836,35.236 C20.836,35.272 20.824,35.332 20.812,35.392 C20.308,37.96 19.408,41.044 18.628,42.808 C18.568,42.94 18.484,43 18.328,43 L17.92,43 C17.764,43 17.68,42.952 17.608,42.808 C16.708,40.9 16,38.716 15.616,36.7 C15.244,38.716 14.524,40.9 13.624,42.808 C13.552,42.952 13.468,43 13.312,43 L12.904,43 C12.748,43 12.664,42.94 12.604,42.808 C11.848,41.032 10.924,37.912 10.42,35.392 C10.408,35.332 10.396,35.272 10.396,35.236 C10.396,35.152 10.432,35.056 10.576,35.056 L11.152,35.056 C11.308,35.056 11.38,35.116 11.404,35.272 C11.776,37.492 12.496,40.18 13.144,41.992 C13.924,40.18 14.764,37.492 15.124,35.272 C15.148,35.116 15.22,35.056 15.376,35.056 L15.856,35.056 C16.012,35.056 16.084,35.116 16.108,35.272 C16.48,37.492 17.32,40.18 18.088,41.992 C18.748,40.18 19.468,37.492 19.828,35.272 C19.852,35.116 19.924,35.056 20.08,35.056 Z M21.7,43 L21.16,43 C21.04,43 20.98,42.952 20.98,42.88 C20.98,42.832 20.992,42.784 21.004,42.748 C21.832,39.952 22.708,37.456 23.764,35.248 C23.836,35.104 23.92,35.056 24.076,35.056 L24.508,35.056 C24.664,35.056 24.748,35.104 24.82,35.248 C25.828,37.384 26.8,39.976 27.58,42.7 C27.604,42.784 27.616,42.82 27.616,42.856 C27.616,42.952 27.556,43 27.424,43 L26.86,43 C26.704,43 26.62,42.94 26.584,42.796 C26.38,42.064 26.2,41.476 26.02,40.84 L22.528,40.84 C22.336,41.476 22.168,42.076 21.964,42.82 C21.928,42.964 21.856,43 21.7,43 Z M25.756,40.048 C25.288,38.596 24.784,37.264 24.268,36.088 C23.752,37.264 23.26,38.596 22.792,40.048 L25.756,40.048 Z M30.7,43 L30.148,43 C29.992,43 29.932,42.94 29.932,42.784 L29.932,35.872 L27.82,35.872 C27.664,35.872 27.604,35.812 27.604,35.656 L27.604,35.272 C27.604,35.116 27.664,35.056 27.82,35.056 L33.028,35.056 C33.184,35.056 33.244,35.116 33.244,35.272 L33.244,35.656 C33.244,35.812 33.184,35.872 33.028,35.872 L30.916,35.872 L30.916,42.784 C30.916,42.94 30.856,43 30.7,43 Z M38.86,43 L34.612,43 C34.456,43 34.396,42.94 34.396,42.784 L34.396,35.272 C34.396,35.116 34.456,35.056 34.612,35.056 L38.86,35.056 C39.016,35.056 39.076,35.116 39.076,35.272 L39.076,35.656 C39.076,35.812 39.016,35.872 38.86,35.872 L35.38,35.872 L35.38,38.464 L38.476,38.464 C38.632,38.464 38.692,38.524 38.692,38.68 L38.692,39.064 C38.692,39.22 38.632,39.28 38.476,39.28 L35.38,39.28 L35.38,42.184 L38.86,42.184 C39.016,42.184 39.076,42.244 39.076,42.4 L39.076,42.784 C39.076,42.94 39.016,43 38.86,43 Z M41.488,43 L40.936,43 C40.78,43 40.72,42.94 40.72,42.784 L40.72,35.272 C40.72,35.116 40.78,35.056 40.936,35.056 L43.06,35.056 C45.1,35.056 45.856,36.172 45.856,37.384 C45.856,38.44 45.22,39.34 43.948,39.616 C44.98,40.468 45.748,41.752 46.18,42.796 C46.24,42.928 46.192,43 46.048,43 L45.4,43 C45.244,43 45.16,42.952 45.1,42.796 C44.74,41.92 44.02,40.684 42.904,39.76 L41.704,39.76 L41.704,42.784 C41.704,42.94 41.644,43 41.488,43 Z M41.704,35.872 L41.704,38.944 L43.096,38.944 C44.416,38.944 44.848,38.26 44.848,37.42 C44.848,36.58 44.428,35.872 43.108,35.872 L41.704,35.872 Z M16.852,67.448 C16.096,67.892 15.148,68.12 14.236,68.12 C11.488,68.12 10.552,66.104 10.552,64.088 C10.552,62.024 11.512,59.936 14.128,59.936 C15.052,59.936 15.964,60.2 16.624,60.8 C16.732,60.896 16.744,60.992 16.648,61.112 L16.372,61.46 C16.288,61.58 16.204,61.592 16.084,61.496 C15.604,61.088 14.908,60.788 14.092,60.788 C12.304,60.788 11.56,62.252 11.56,64.088 C11.56,65.936 12.304,67.304 14.236,67.304 C14.8,67.304 15.544,67.184 16.06,66.872 L16.06,64.58 L14.392,64.58 C14.236,64.58 14.176,64.52 14.176,64.364 L14.176,63.98 C14.176,63.824 14.236,63.764 14.392,63.764 L16.816,63.764 C16.972,63.764 17.032,63.824 17.032,63.98 L17.032,67.124 C17.032,67.268 16.972,67.364 16.852,67.448 Z M18.976,68 L18.436,68 C18.316,68 18.256,67.952 18.256,67.88 C18.256,67.832 18.268,67.784 18.28,67.748 C19.108,64.952 19.984,62.456 21.04,60.248 C21.112,60.104 21.196,60.056 21.352,60.056 L21.784,60.056 C21.94,60.056 22.024,60.104 22.096,60.248 C23.104,62.384 24.076,64.976 24.856,67.7 C24.88,67.784 24.892,67.82 24.892,67.856 C24.892,67.952 24.832,68 24.7,68 L24.136,68 C23.98,68 23.896,67.94 23.86,67.796 C23.656,67.064 23.476,66.476 23.296,65.84 L19.804,65.84 C19.612,66.476 19.444,67.076 19.24,67.82 C19.204,67.964 19.132,68 18.976,68 Z M23.032,65.048 C22.564,63.596 22.06,62.264 21.544,61.088 C21.028,62.264 20.536,63.596 20.068,65.048 L23.032,65.048 Z M30.784,65.888 C30.784,67.268 29.716,68.12 28.06,68.12 C26.98,68.12 26.176,67.76 25.696,67.328 C25.588,67.232 25.576,67.136 25.66,67.016 L25.948,66.656 C26.044,66.536 26.128,66.524 26.248,66.62 C26.728,67.016 27.316,67.268 28.072,67.268 C29.152,67.268 29.788,66.764 29.788,65.948 C29.788,65.084 29.056,64.772 28.072,64.472 C27.016,64.148 25.672,63.716 25.672,62.156 C25.672,60.764 26.752,59.936 28.372,59.936 C29.332,59.936 30.052,60.224 30.496,60.572 C30.616,60.668 30.628,60.764 30.544,60.884 L30.292,61.244 C30.196,61.364 30.112,61.376 29.992,61.292 C29.584,60.992 29.056,60.788 28.348,60.788 C27.124,60.788 26.668,61.412 26.668,62.108 C26.668,62.972 27.388,63.296 28.372,63.596 C29.428,63.92 30.784,64.34 30.784,65.888 Z" id="OIL-WATER-GAS" fill="#A5BCC7"></path>
            </g>
        </g>
    </g>
</svg>
