
<svg width="853px" height="260px" viewBox="0 0 853 260" version="1.1" xmlns="http://www.w3.org/2000/svg" xmlns:xlink="http://www.w3.org/1999/xlink">
    <defs></defs>
    <g id="Page-1" stroke="none" stroke-width="1" fill="none" fill-rule="evenodd">
        <rect id="bkgd" stroke-opacity="0" stroke="#09819C" x="0.5" y="0.5" width="852" height="259"></rect>
        <g id="kpi_spark_oil" transform="translate(65.625000, 89.043473)" stroke="#25D70A" stroke-width="2">
            <path d="M0.375,35.2118457 L8.64660365,66.4884434 L15.2638901,47.1267396 L20.2268522,57.552273 L28.4984559,24.7863149 L35.1157423,57.552273 C38.4243838,43.6515626 40.6301424,37.1976623 41.7330252,38.1905692 C43.3873459,39.6799323 51.6589496,60.5309965 53.3132703,57.552273 C54.4161531,55.5664565 56.6219153,49.1125561 59.9305567,38.1905692 L68.2021604,53.0841865 C74.8194433,44.1480161 78.1280847,40.6728392 78.1280847,42.6586557 C78.1280847,44.6444696 80.3338469,51.5948261 84.7453711,63.5097199 L91.3626541,53.0841865 L97.979937,63.5097199 L104.597223,57.552273 L109.560186,63.5097199 L119.48611,42.6586557 L126.103396,53.0841865 L139.337962,5.4246111 L147.609569,20.3182284 L154.226852,8.40333457 L157.535494,24.7863149 L172.424384,0.956527257 L180.695987,30.7437619 L190.621915,53.0841865 L200.54784,57.552273 L203.856481,42.6586557 L213.782409,38.1905692 L223.708333,27.7650384 L231.979937,47.1267396 L235.288582,30.7437619 L246.868827,66.4884434 L256.794751,42.6586557 L261.757717,57.552273 L278.300924,12.8714211 L284.918211,24.7863149 L293.189814,8.40333457 L299.807097,24.7863149 L313.041667,8.40333457 L319.65895,35.2118457 L347.782409,8.40333457 C351.09105,15.3536911 353.296809,20.8146846 354.399692,24.7863149 C356.054013,30.7437619 372.597223,38.1905692 375.905865,42.6586557 C378.111627,45.6373792 384.177468,45.6373792 394.103396,42.6586557 C398.514917,27.7650384 401.272121,20.3182284 402.375,20.3182284 C403.477879,20.3182284 407.889404,25.2827684 415.609569,35.2118457 L425.535494,47.1267396 C435.461418,35.2118457 445.387346,27.7650384 455.31327,24.7863149 C470.20216,20.3182284 476.819443,32.2331223 480.128085,35.2118457 C482.333847,37.1976623 494.465533,49.1125561 516.523148,70.9565273 L539.683641,38.1905692 L546.300924,53.0841865 L556.226852,35.9565273 C555.123973,47.3749676 557.329732,52.0912796 562.844135,50.105463 C568.358539,48.1196465 575.527263,37.1976623 584.350308,17.3395049 L590.967591,30.7437619 L605.856481,38.1905692 C615.782409,36.2047553 621.84825,35.2118457 624.054013,35.2118457 C627.362654,35.2118457 638.942903,50.105463 642.251544,50.105463 C645.560186,50.105463 653.831789,35.9565273 657.140431,35.9565273 C659.346193,35.9565273 663.757717,39.6799323 670.375,47.1267396" id="Path-4" transform="translate(335.375000, 35.956527) scale(-1, 1) translate(-335.375000, -35.956527) "></path>
        </g>
    </g>
</svg>
