
<svg width="853px" height="260px" viewBox="0 0 853 260" version="1.1" xmlns="http://www.w3.org/2000/svg" xmlns:xlink="http://www.w3.org/1999/xlink">
    <defs></defs>
    <g id="Page-1" stroke="none" stroke-width="1" fill="none" fill-rule="evenodd">
        <rect id="bkgd" stroke-opacity="0" stroke="#09819C" x="0.5" y="0.5" width="852" height="259"></rect>
        <path d="M66,62.9464229 C74.2573219,65.2138229 79.1304275,66.3475229 80.619317,66.3475229 C83.9693164,66.3475229 91.1249997,64.6469714 94.4749992,64.6469714 C97.8249987,64.6469714 105.95934,64.6469714 109.30934,64.6469714 C111.542674,64.6469714 119.685605,66.9143743 133.738129,71.4491743 L141.98802,62.9464229 L154.961501,64.6469714 C162.653832,63.5132714 169.291667,63.5132714 174.875001,64.6469714 C180.458331,65.7806714 182.691665,63.0881343 181.575,56.5693571 L191.624998,66.3475229 L198.325001,57.8447714 L224.611145,68.8983486 C246.562774,67.1977971 258.655254,65.7806714 260.888584,64.6469714 C264.238587,62.9464229 270.866894,57.8447714 285.941895,60.3955971 C295.991894,62.0961457 305.311265,62.9464229 313.900001,62.9464229 L323.949999,56.14422 C331.064627,57.27792 335.180271,57.8447714 336.29694,57.8447714 C337.413606,57.8447714 340.556294,58.6950457 345.725,60.3955971 C355.775002,62.0961457 361.916666,62.0961457 364.15,60.3955971 C367.5,57.8447714 384.250001,61.2458714 385.925001,57.8447714 C387.041666,55.5773686 389.389886,56.4276457 392.969656,60.3955971 L421.099999,56.14422 L427.800001,62.9464229 L440.926678,60.3955971 L447.900002,68.8983486 L456.275,34 L468.188237,50.1922943 L479.725,42.4704829 L484.75,60.3955971 L494.800002,74 L506.525,53.5933943 L509.874999,62.9464229 L518.250002,51.8928429 L528.3,57.8447714 L538.350002,60.3955971 L541.700001,68.8983486 L551.75,66.3475229 L561.800002,66.3475229 L570.175001,72.9178314 L588.725289,71.4491743 L588.600001,64.6469714 L598.775287,68.8983486 L601.297528,62.9464229 L617.075001,66.3475229 L621.282208,42.4704829 L633.825001,72.2994486 L640.545755,60.3955971 L645.55,72.2994486 L652.250002,66.3475229 L658.950001,72.2994486 C663.41667,65.4972486 665.65,61.5292971 665.65,60.3955971 C665.65,59.2618971 669,61.2458714 675.700002,66.3475229 L684.075001,57.8447714 C687.425,64.0801229 689.658335,67.7646486 690.775,68.8983486 C692.45,70.5989 700.825002,58.6950457 702.500002,57.8447714 C703.616667,57.27792 705.850001,60.9624457 709.200001,68.8983486 L718.848988,60.3955971 L724.275002,68.8983486 L729.300001,62.9464229 L736,74" id="Path-4-Copy" stroke="#00CCFF" stroke-width="2" style="mix-blend-mode: screen;"></path>
    </g>
</svg>
