
<svg width="17px" height="12px" viewBox="0 0 17 12" version="1.1" xmlns="http://www.w3.org/2000/svg" xmlns:xlink="http://www.w3.org/1999/xlink">
    <defs></defs>
    <g id="Data-Tables" stroke="none" stroke-width="1" fill="none" fill-rule="evenodd">
        <g id="Wells-In-This-Group" transform="translate(-40.000000, -158.000000)" fill="#7FAE1B">
            <g id="data-table" transform="translate(30.000000, 85.000000)">
                <g id="table-content" transform="translate(10.000000, 59.000000)">
                    <g id="connectivity-status-icons" transform="translate(0.000000, 1.000000)">
                        <path d="M8.57142857,24.891183 C8.45982087,24.891183 8.20033686,24.686107 7.79296875,24.2759487 C7.38560064,23.8657904 7.18191964,23.6049113 7.18191964,23.4933036 C7.18191964,23.3147313 7.35630406,23.1640631 7.70507812,23.0412946 C8.05385219,22.9185262 8.34263278,22.8571429 8.57142857,22.8571429 C8.80022436,22.8571429 9.08900495,22.9185262 9.43777902,23.0412946 C9.78655308,23.1640631 9.9609375,23.3147313 9.9609375,23.4933036 C9.9609375,23.6049113 9.7572565,23.8657904 9.34988839,24.2759487 C8.94252028,24.686107 8.68303627,24.891183 8.57142857,24.891183 Z M10.8314732,22.6227679 C10.8203124,22.6227679 10.7087064,22.5530141 10.4966518,22.4135045 C10.2845972,22.2739948 10.0013969,22.1344873 9.64704241,21.9949777 C9.29268796,21.8554681 8.9341536,21.7857143 8.57142857,21.7857143 C8.20870354,21.7857143 7.85016918,21.8554681 7.49581473,21.9949777 C7.14146028,22.1344873 6.85965506,22.2739948 6.65039062,22.4135045 C6.44112619,22.5530141 6.32812508,22.6227679 6.31138393,22.6227679 C6.210937,22.6227679 5.95005791,22.4135066 5.52873884,21.9949777 C5.10741977,21.5764488 4.89676339,21.3169648 4.89676339,21.2165179 C4.89676339,21.1439729 4.9246649,21.0797994 4.98046875,21.0239955 C5.41573878,20.5943059 5.96260831,20.2566977 6.62109375,20.0111607 C7.27957919,19.7656238 7.92968429,19.6428571 8.57142857,19.6428571 C9.21317285,19.6428571 9.86327796,19.7656238 10.5217634,20.0111607 C11.1802488,20.2566977 11.7271184,20.5943059 12.1623884,21.0239955 C12.2181922,21.0797994 12.2460938,21.1439729 12.2460938,21.2165179 C12.2460938,21.3169648 12.0354374,21.5764488 11.6141183,21.9949777 C11.1927992,22.4135066 10.9319201,22.6227679 10.8314732,22.6227679 Z M13.1166295,20.3459821 C13.0552452,20.3459821 12.9910718,20.3236609 12.9241071,20.2790179 C12.1651748,19.6930774 11.4620568,19.2619991 10.8147321,18.9857701 C10.1674075,18.709541 9.4196471,18.5714286 8.57142857,18.5714286 C8.09709584,18.5714286 7.62137515,18.6328119 7.14425223,18.7555804 C6.66712931,18.8783488 6.25139686,19.0262268 5.89704241,19.1992188 C5.54268796,19.3722107 5.22600586,19.5452 4.94698661,19.718192 C4.66796735,19.8911839 4.44754545,20.0390619 4.28571429,20.1618304 C4.12388312,20.2845988 4.03738845,20.3459821 4.02622768,20.3459821 C3.93136113,20.3459821 3.67466727,20.1367208 3.25613839,19.718192 C2.83760951,19.2996631 2.62834821,19.0401791 2.62834821,18.9397321 C2.62834821,18.8727675 2.65624972,18.8113842 2.71205357,18.7555804 C3.4486644,18.0189695 4.34151261,17.4469886 5.390625,17.0396205 C6.43973739,16.6322524 7.49999464,16.4285714 8.57142857,16.4285714 C9.6428625,16.4285714 10.7031198,16.6322524 11.7522321,17.0396205 C12.8013445,17.4469886 13.6941927,18.0189695 14.4308036,18.7555804 C14.4866074,18.8113842 14.5145089,18.8727675 14.5145089,18.9397321 C14.5145089,19.0401791 14.3052476,19.2996631 13.8867188,19.718192 C13.4681899,20.1367208 13.211496,20.3459821 13.1166295,20.3459821 Z M15.3850446,18.077567 C15.3236604,18.077567 15.2622771,18.0524556 15.2008929,18.0022321 C14.2020039,17.1261117 13.165463,16.4662411 12.0912388,16.0226004 C11.0170147,15.5789598 9.84375636,15.3571429 8.57142857,15.3571429 C7.29910078,15.3571429 6.12584242,15.5789598 5.0516183,16.0226004 C3.97739418,16.4662411 2.94085321,17.1261117 1.94196429,18.0022321 C1.88058005,18.0524556 1.81919674,18.077567 1.7578125,18.077567 C1.66294595,18.077567 1.40485702,17.8683057 0.983537946,17.4497768 C0.562218876,17.0312479 0.3515625,16.7717639 0.3515625,16.671317 C0.3515625,16.598772 0.379464007,16.5345985 0.435267857,16.4787946 C1.47879986,15.440843 2.72041691,14.6372796 4.16015625,14.0680804 C5.59989559,13.4988811 7.07030499,13.2142857 8.57142857,13.2142857 C10.0725521,13.2142857 11.5429616,13.4988811 12.9827009,14.0680804 C14.4224402,14.6372796 15.6640573,15.440843 16.7075893,16.4787946 C16.7633931,16.5345985 16.7912946,16.598772 16.7912946,16.671317 C16.7912946,16.7717639 16.5806383,17.0312479 16.1593192,17.4497768 C15.7380001,17.8683057 15.4799112,18.077567 15.3850446,18.077567 Z" id=""></path>
                    </g>
                </g>
            </g>
        </g>
    </g>
</svg>
