
<svg width="31px" height="26px" viewBox="0 0 31 26" version="1.1" xmlns="http://www.w3.org/2000/svg" xmlns:xlink="http://www.w3.org/1999/xlink">
    <defs>
        <path d="M15,0 C6.7,0 0,6.8 0,15.1 C0,19 1.5,22.7 4.2,25.6 C4.5,25.8 4.9,26 5.3,26 L24.7,26 C25.1,26 25.5,25.8 25.8,25.5 C28.5,22.7 30,19 30,15.1 C30,6.8 23.3,0 15,0 Z M25.1,24.8 C25,24.9 24.9,25 24.7,25 L5.3,25 C5.2,25 5,24.9 4.9,24.8 C2.4,22.2 1,18.8 1,15.1 C1,7.3 7.3,1 15,1 C22.7,1 29,7.3 29,15.1 C29,18.8 27.6,22.2 25.1,24.8 Z M15,4.9 C9.5,4.9 5,9.5 5,15 L4,15 C4,8.9 8.9,3.9 15,3.9 C17.6,3.9 20.1,4.8 22,6.5 L21.4,7.3 C19.6,5.8 17.3,4.9 15,4.9 Z M16.6,15.5 C16.1,15.2 15.6,15 15,15 C13.3,15 12,16.3 12,18 C12,19.7 13.3,21 15,21 C16.7,21 18,19.7 18,18 C18,17.3 17.7,16.6 17.3,16.1 L24.9,7.8 L24.2,7.1 L16.6,15.5 Z M15,20 C13.9,20 13,19.1 13,18 C13,16.9 13.9,16 15,16 C16.1,16 17,16.9 17,18 C17,19.1 16.1,20 15,20 Z" id="path-1"></path>
    </defs>
    <g id="🛠Symbols-Icons" stroke="none" stroke-width="1" fill="none" fill-rule="evenodd">
        <g id="px-fea:dashboard" transform="translate(0.025391, 0.000000)">
            <mask id="mask-2" fill="white">
                <use xlink:href="#path-1"></use>
            </mask>
            <use id="Mask" fill="#4C6472" fill-rule="nonzero" xlink:href="#path-1"></use>
        </g>
    </g>
</svg>
