
<svg width="30px" height="28px" viewBox="0 0 30 28" version="1.1" xmlns="http://www.w3.org/2000/svg" xmlns:xlink="http://www.w3.org/1999/xlink">
    <defs>
        <path d="M18.8709677,0 C17.1290323,0 15.6774194,0.967741935 15,2.41935484 C14.3225806,0.967741935 12.8709677,0 11.1290323,0 L0,0 L0,24.1935484 L12.0967742,24.1935484 C13.4516129,24.1935484 14.516129,25.2580645 14.516129,26.6129032 L14.516129,27.0967742 L15.483871,27.0967742 L15.483871,26.6129032 C15.483871,25.2580645 16.5483871,24.1935484 17.9032258,24.1935484 L30,24.1935484 L30,0 L18.8709677,0 Z M29.0322581,23.2258065 L17.9032258,23.2258065 C16.6451613,23.2258065 15.5806452,23.9032258 15,24.9677419 C14.4193548,24 13.3548387,23.2258065 12.0967742,23.2258065 L0.967741935,23.2258065 L0.967741935,0.967741935 L11.1290323,0.967741935 C12.9677419,0.967741935 14.516129,2.51612903 14.516129,4.35483871 L14.516129,21.9677419 L15.483871,21.9677419 L15.483871,4.35483871 C15.483871,2.51612903 17.0322581,0.967741935 18.8709677,0.967741935 L29.0322581,0.967741935 L29.0322581,23.2258065 Z M4.83870968,10.6451613 L10.6451613,10.6451613 L10.6451613,4.83870968 L4.83870968,4.83870968 L4.83870968,10.6451613 Z M5.80645161,5.80645161 L9.67741935,5.80645161 L9.67741935,9.67741935 L5.80645161,9.67741935 L5.80645161,5.80645161 Z M4.83870968,19.3548387 L10.6451613,19.3548387 L10.6451613,13.5483871 L4.83870968,13.5483871 L4.83870968,19.3548387 Z M5.80645161,14.516129 L9.67741935,14.516129 L9.67741935,18.3870968 L5.80645161,18.3870968 L5.80645161,14.516129 Z M25.1612903,4.83870968 L19.3548387,4.83870968 L19.3548387,10.6451613 L25.1612903,10.6451613 L25.1612903,4.83870968 Z M24.1935484,9.67741935 L20.3225806,9.67741935 L20.3225806,5.80645161 L24.1935484,5.80645161 L24.1935484,9.67741935 Z M25.1612903,13.5483871 L19.3548387,13.5483871 L19.3548387,19.3548387 L25.1612903,19.3548387 L25.1612903,13.5483871 Z M24.1935484,18.3870968 L20.3225806,18.3870968 L20.3225806,14.516129 L24.1935484,14.516129 L24.1935484,18.3870968 Z" id="path-1"></path>
    </defs>
    <g id="Data-Tables" stroke="none" stroke-width="1" fill="none" fill-rule="evenodd">
        <g id="Wells-In-This-Group" transform="translate(-30.000000, -22.000000)">
            <g id="/Card-Icon-px-fea:catalog" transform="translate(30.000000, 21.000000)">
                <g id="px-fea:catalog" transform="translate(-7.000000, -6.000000)">
                    <rect id="Container" x="0" y="0" width="44" height="42"></rect>
                    <g id="Container" transform="translate(7.000000, 7.000000)">
                        <mask id="mask-2" fill="white">
                            <use xlink:href="#path-1"></use>
                        </mask>
                        <use id="Mask" fill="#4C6472" fill-rule="nonzero" xlink:href="#path-1"></use>
                        <rect fill="#677E8C" mask="url(#mask-2)" x="-8" y="-7" width="46" height="42"></rect>
                    </g>
                </g>
            </g>
        </g>
    </g>
</svg>
