
<svg width="22px" height="6px" viewBox="0 0 22 6" version="1.1" xmlns="http://www.w3.org/2000/svg" xmlns:xlink="http://www.w3.org/1999/xlink">
    <defs>
        <path d="M22,0 C20.3,0 19,1.3 19,3 C19,4.7 20.3,6 22,6 C23.7,6 25,4.7 25,3 C25,1.3 23.7,0 22,0 Z M22,5 C20.9,5 20,4.1 20,3 C20,1.9 20.9,1 22,1 C23.1,1 24,1.9 24,3 C24,4.1 23.1,5 22,5 Z M6,0 C4.3,0 3,1.3 3,3 C3,4.7 4.3,6 6,6 C7.7,6 9,4.7 9,3 C9,1.3 7.7,0 6,0 Z M6,5 C4.9,5 4,4.1 4,3 C4,1.9 4.9,1 6,1 C7.1,1 8,1.9 8,3 C8,4.1 7.1,5 6,5 Z M14,0 C12.3,0 11,1.3 11,3 C11,4.7 12.3,6 14,6 C15.7,6 17,4.7 17,3 C17,1.3 15.7,0 14,0 Z M14,5 C12.9,5 12,4.1 12,3 C12,1.9 12.9,1 14,1 C15.1,1 16,1.9 16,3 C16,4.1 15.1,5 14,5 Z" id="path-1"></path>
    </defs>
    <g id="Symbols" stroke="none" stroke-width="1" fill="none" fill-rule="evenodd">
        <g id="/Card-Actions-px-nav:more" transform="translate(-4.000000, -9.000000)">
            <g id="px-nav:more" transform="translate(1.000000, 9.000000)">
                <mask id="mask-2" fill="white">
                    <use xlink:href="#path-1"></use>
                </mask>
                <use id="Mask" fill="#4C6472" fill-rule="nonzero" xlink:href="#path-1"></use>
            </g>
        </g>
    </g>
</svg>
