
<svg width="17px" height="23px" viewBox="0 0 17 23" version="1.1" xmlns="http://www.w3.org/2000/svg" xmlns:xlink="http://www.w3.org/1999/xlink">
    <defs>
        <path d="M8.19685397,6.05596929 C7.65708134,5.85745843 7.27283909,5.34617994 7.27283909,4.74676005 C7.27283909,3.97492535 7.90991533,3.3492297 8.6957887,3.3492297 C9.48166207,3.3492297 10.1187383,3.97492535 10.1187383,4.74676005 C10.1187383,5.42901926 9.62095352,5.99709151 8.96262735,6.11975784 L0.68831931,22.0254668 L0.0547476449,21.7075468 L8.19685397,6.05596929 Z M8.6957887,5.44552522 C9.08872538,5.44552522 9.40726351,5.1326774 9.40726351,4.74676005 C9.40726351,4.3608427 9.08872538,4.04799488 8.6957887,4.04799488 C8.30285202,4.04799488 7.98431389,4.3608427 7.98431389,4.74676005 C7.98431389,5.1326774 8.30285202,5.44552522 8.6957887,5.44552522 Z M3.2899525,8.66086097 L2.86032297,9.2178412 C0.348807745,7.34916691 -0.167707442,3.84426613 1.71193412,1.40851418 C1.97493541,1.02105954 2.25107633,0.762179184 2.91854768,0.21588936 L3.37402275,0.752695635 C2.76083946,1.25455357 2.51523219,1.48480883 2.29148102,1.81329413 C0.63797427,3.95693303 1.08996241,7.02397464 3.2899525,8.66086097 Z M5.94518716,6.60415198 L5.61229684,7.22171219 C4.22231023,6.49898245 3.66833667,4.81728837 4.39334858,3.47248713 C4.64121349,2.98561292 5.12392158,2.51152783 5.6196514,2.26809073 L5.9378326,2.8930853 C5.57979265,3.0689073 5.20873097,3.43334042 5.02592621,3.7922076 C4.48316013,4.79911802 4.89848396,6.05991397 5.94518716,6.60415198 Z M14.1727724,0.832659131 L14.6024019,0.275678899 C17.1019006,2.1354124 17.6372123,5.56420983 15.8219382,8.0151294 C15.5589369,8.40258404 15.282796,8.6614644 14.6153247,9.20775422 L14.1598496,8.67094795 C14.7730329,8.16909001 15.0186402,7.93883475 15.2382492,7.61582986 C16.8328943,5.46236162 16.3647141,2.46355713 14.1727724,0.832659131 Z M11.5886852,2.88936812 L11.9215755,2.27180791 C13.3115621,2.99453765 13.8655357,4.67623173 13.1405238,6.02103297 C12.8926589,6.50790718 12.4099508,6.98199227 11.914221,7.22542937 L11.5960398,6.6004348 C11.9540797,6.4246128 12.3251414,6.06017968 12.5079462,5.7013125 C13.0507122,4.69440208 12.6353884,3.43360613 11.5886852,2.88936812 Z M8.3400513,12.4331769 L5.35185711,12.4331769 L5.35185711,11.7344118 L8.3400513,11.7344118 L8.3400513,6.14429039 L8.4754443,6.14429039 L8.44764254,6.08870498 L9.08622983,5.7806167 L17.0547476,21.7124626 L16.4161604,22.0205509 L14.416883,18.0232983 L9.0515261,18.0232983 L9.0515261,22.2158894 L8.3400513,22.2158894 L8.3400513,18.0232983 L2.50595789,18.0232983 L2.50595789,17.3245332 L8.3400513,17.3245332 L8.3400513,12.4331769 Z M9.0515261,12.4331769 L9.0515261,17.3245332 L14.0673866,17.3245332 L11.6209119,12.4331769 L9.0515261,12.4331769 Z M9.0515261,11.7344118 L11.2714155,11.7344118 L9.0515261,7.29607882 L9.0515261,11.7344118 Z" id="path-1"></path>
    </defs>
    <g id="Lite---MWEO:APM-P" stroke="none" stroke-width="1" fill="none" fill-rule="evenodd">
        <g id="lite---dashboard:-APM-P" transform="translate(-104.000000, -806.000000)">
            <g id="wells-in-this-group" transform="translate(60.000000, 652.000000)">
                <g id="data-table" transform="translate(30.000000, 82.000000)">
                    <g id="table-content" transform="translate(10.000000, 59.000000)">
                        <g id="PX---connectivity-icons" transform="translate(4.000000, 13.000000)">
                            <g id="Object-Cell_Tower_32x32">
                                <mask id="mask-2" fill="white">
                                    <use xlink:href="#path-1"></use>
                                </mask>
                                <use id="Mask" fill="#4C6472" fill-rule="nonzero" xlink:href="#path-1"></use>
                            </g>
                        </g>
                    </g>
                </g>
            </g>
        </g>
    </g>
</svg>
