
<svg width="16px" height="16px" viewBox="0 0 16 16" version="1.1" xmlns="http://www.w3.org/2000/svg" xmlns:xlink="http://www.w3.org/1999/xlink">
    <defs>
        <path d="M3,6.2 L8,6.2 L8,7.2 L3,7.2 L3,6.2 Z M3,8.2 L11,8.2 L11,9.2 L3,9.2 L3,8.2 Z M16,3.8 C16,1.9 14.4,0.3 12.5,0.3 C11.1,0.3 9.9,1.1 9.4,2.3 L0.5,2.3 C0.2,2.2 0,2.5 0,2.8 L0,12.8 C0,13.1 0.2,13.3 0.5,13.3 L4.6,13.3 L6.6,15.6 C6.7,15.7 6.8,15.8 7,15.8 C7.2,15.8 7.3,15.7 7.4,15.6 L9.4,13.3 L13.5,13.3 C13.8,13.3 14,13.1 14,12.8 L14,6.9 C15.2,6.3 16,5.1 16,3.8 Z M13,12.2 L9.2,12.2 C9.1,12.2 8.9,12.3 8.8,12.4 L7,14.5 L5.2,12.4 C5.1,12.3 5,12.2 4.8,12.2 L1,12.2 L1,3.2 L9.1,3.2 C9,3.4 9,3.6 9,3.8 C9,5.7 10.6,7.3 12.5,7.3 C12.7,7.3 12.8,7.3 13,7.2 L13,12.2 Z M12.5,6.2 C11.1,6.2 10,5.1 10,3.7 C10,2.3 11.1,1.2 12.5,1.2 C13.9,1.2 15,2.4 15,3.8 C15,5.2 13.9,6.2 12.5,6.2 Z" id="path-1"></path>
    </defs>
    <g id="🛠Symbols-Icons" stroke="none" stroke-width="1" fill="none" fill-rule="evenodd">
        <g id="Icons/16/px-utl:alert" transform="translate(-4.000000, -3.000000)">
            <g id="px-utl:alert" transform="translate(4.000000, 3.000000)">
                <mask id="mask-2" fill="white">
                    <use xlink:href="#path-1"></use>
                </mask>
                <use id="Mask" fill="#4C6472" fill-rule="nonzero" xlink:href="#path-1"></use>
            </g>
        </g>
    </g>
</svg>
