
<svg width="673px" height="49px" viewBox="0 0 673 49" version="1.1" xmlns="http://www.w3.org/2000/svg" xmlns:xlink="http://www.w3.org/1999/xlink">
    <defs></defs>
    <g id="Page-1" stroke="none" stroke-width="1" fill="none" fill-rule="evenodd">
        <path d="M1,33.9464229 C9.25732186,36.2138229 14.1304275,37.3475229 15.619317,37.3475229 C18.9693164,37.3475229 26.1249997,35.6469714 29.4749992,35.6469714 C32.8249987,35.6469714 40.9593403,35.6469714 44.3093398,35.6469714 C46.542674,35.6469714 54.6856048,37.9143743 68.7381289,42.4491743 L76.9880204,33.9464229 L89.9615007,35.6469714 C97.6538316,34.5132714 104.291667,34.5132714 109.875001,35.6469714 C115.458331,36.7806714 117.691665,34.0881343 116.575,27.5693571 L126.624998,37.3475229 L133.325001,28.8447714 L159.611145,39.8983486 C181.562774,38.1977971 193.655254,36.7806714 195.888584,35.6469714 C199.238587,33.9464229 205.866894,28.8447714 220.941895,31.3955971 C230.991894,33.0961457 240.311265,33.9464229 248.900001,33.9464229 L258.949999,27.14422 C266.064627,28.27792 270.180271,28.8447714 271.29694,28.8447714 C272.413606,28.8447714 275.556294,29.6950457 280.725,31.3955971 C290.775002,33.0961457 296.916666,33.0961457 299.15,31.3955971 C302.5,28.8447714 319.250001,32.2458714 320.925001,28.8447714 C322.041666,26.5773686 324.389886,27.4276457 327.969656,31.3955971 L356.099999,27.14422 L362.800001,33.9464229 L375.926678,31.3955971 L382.900002,39.8983486 L391.275,5 L403.188237,21.1922943 L414.725,13.4704829 L419.75,31.3955971 L429.800002,45 L441.525,24.5933943 L444.874999,33.9464229 L453.250002,22.8928429 L463.3,28.8447714 L473.350002,31.3955971 L476.700001,39.8983486 L486.75,37.3475229 L496.800002,37.3475229 L505.175001,43.9178314 L523.725289,42.4491743 L523.600001,35.6469714 L533.775287,39.8983486 L536.297528,33.9464229 L552.075001,37.3475229 L556.282208,13.4704829 L568.825001,43.2994486 L575.545755,31.3955971 L580.55,43.2994486 L587.250002,37.3475229 L593.950001,43.2994486 C598.41667,36.4972486 600.65,32.5292971 600.65,31.3955971 C600.65,30.2618971 604,32.2458714 610.700002,37.3475229 L619.075001,28.8447714 C622.425,35.0801229 624.658335,38.7646486 625.775,39.8983486 C627.45,41.5989 635.825002,29.6950457 637.500002,28.8447714 C638.616667,28.27792 640.850001,31.9624457 644.200001,39.8983486 L653.848988,31.3955971 L659.275002,39.8983486 L664.300001,33.9464229 L671,45" id="Path-4-Copy" stroke="#00CCFF" stroke-width="4" style="mix-blend-mode: screen;"></path>
    </g>
</svg>
