
<svg width="673px" height="52px" viewBox="0 0 673 52" version="1.1" xmlns="http://www.w3.org/2000/svg" xmlns:xlink="http://www.w3.org/1999/xlink">
    <defs></defs>
    <g id="Page-1" stroke="none" stroke-width="1" fill="none" fill-rule="evenodd">
        <g id="kpi_spark_gas" transform="translate(0.625000, 7.854889)" stroke="#FF7900" stroke-width="4">
            <g id="stories">
                <g id="dashboard">
                    <path d="M0.375,12.4031753 L8.64660365,38.1451109 L15.2638901,22.2096263 L20.2268522,30.7902733 L25.5858752,18.5322089 L35.1157423,30.7902733 C38.4243837,19.3494125 40.6301424,14.0375852 41.7330252,14.8547888 C43.3873459,16.0805955 51.6589496,33.241884 53.3132703,30.7902733 C54.4161531,29.1558635 56.6219153,23.8440362 59.9305567,14.8547888 L68.2021604,27.1128532 C74.8194433,19.7580129 78.1280847,16.897799 78.1280847,18.5322089 C78.1280847,20.166616 80.3338469,25.8870465 84.7453711,35.6934975 L91.3626541,27.1128532 L97.979937,35.6934975 L104.597223,30.7902733 L109.560186,35.6934975 L119.48611,18.5322089 L126.103396,27.1128532 L141.686085,22.2096263 L147.609569,0.145110903 L154.226852,24.6612398 L157.535494,3.82253105 L172.424384,36.5849938 L180.695987,8.72575519 L190.621915,27.1128532 L200.54784,30.7902733 L203.856481,18.5322089 L213.782409,14.8547888 L223.708333,6.27414447 L231.979937,22.2096263 L235.288582,8.72575519 L246.868827,38.1451109 L256.794751,18.5322089 L261.757717,30.7902733 L278.300924,30.7902733 L284.918211,3.82253105 L293.189814,30.7902733 L299.807097,3.82253105 L313.041667,22.2096263 L319.65895,12.4031753 L347.442007,18.5322089 C350.977583,12.8117785 353.296809,11.5859718 354.399692,14.8547888 C356.054013,19.7580129 372.597223,14.8547888 375.905865,18.5322089 C378.111627,20.9838196 384.177468,20.9838196 394.103396,18.5322089 C399.20829,16.0805955 402.312177,14.8547888 403.41506,14.8547888 C404.517939,14.8547888 408.582777,14.0375852 415.609569,12.4031753 L425.535494,22.2096263 C435.461418,27.9300568 445.387346,29.5644666 455.31327,27.1128532 C470.202171,23.435433 476.819433,9.9515619 480.128081,12.4031753 C482.333847,14.0375852 494.465523,17.3064022 516.523144,22.2096263 L539.683648,14.8547888 L546.30091,27.1128532 L556.226856,13.0160773 C555.123973,22.4139279 557.329739,26.2956496 562.844153,24.6612398 C568.358532,23.0268326 574.914412,23.0268326 582.511793,24.6612398 L590.967577,8.72575519 L605.856478,14.8547888 C615.782423,13.2203789 621.848261,12.4031753 624.054027,12.4031753 C627.36264,12.4031753 638.942892,24.6612398 642.251541,24.6612398 C645.560189,24.6612398 652.627538,27.1128532 655.936151,27.1128532 C658.141917,27.1128532 662.95489,25.4784433 670.375,22.2096263" id="Path-4-Copy-2" transform="translate(335.375000, 19.145111) scale(-1, 1) translate(-335.375000, -19.145111) "></path>
                </g>
            </g>
        </g>
    </g>
</svg>
