
<svg width="900px" height="111px" viewBox="0 0 900 111" version="1.1" xmlns="http://www.w3.org/2000/svg" xmlns:xlink="http://www.w3.org/1999/xlink">
    <defs></defs>
    <g id="🚧In-progress-Components" stroke="none" stroke-width="1" fill="none" fill-rule="evenodd">
        <g id="Data-Viz" transform="translate(-1801.000000, -333.000000)" stroke="#5FBCF8" stroke-width="4">
            <g id="Group-5" transform="translate(1789.000000, 189.000000)">
                <g id="Group-Copy-4" transform="translate(14.000000, 158.000000)">
                    <path d="M0,29.111 L3.83146667,14.556 L21.0421356,28.501 L21.0421356,15.758 L47.8015378,16.979 L59.2360711,61.866 L66.9029956,15.166 L76.7678406,33.1361193 L84.1126667,15.166 L93.3989604,41.8988479 L103.209136,14.556 L110.873067,65.51 L114.704533,16.979 L128.083736,80.083 L135.743676,14.556 L147.180204,18.792 L160.559407,16.368 L168.225333,28.501 L176.033886,16.4145898 L181.571112,30.609973 L190.864625,44.5029302 L196.86854,15.758 L210.250736,28.501 L214.080207,13.335 L221.746133,26.688 L235.124338,14.556 C235.124338,14.556 246.616742,62.783 246.616742,61.866 C246.616742,60.97 252.338,31.535 252.338,31.535 L258.053271,66.73 L265.717202,14.556 L271.432473,60.055 L275.262942,16.368 L285.17413,18.263878 L291.795811,15.1676122 L298.49441,63.2067475 L304.593727,19.5379638 L319.237004,16.368 L340.27914,87.353 L349.829869,16.368 L357.489809,15.758 L368.926338,55.208 L384.250209,29.723 L391.913142,63.087 L397.631407,33.365 L407.956694,44.0996956 L416.726878,31.535 L426.276609,7.27 L433.941538,56.411 L437.771009,10.913 L445.43494,30.942 L449.263413,0 L456.415666,41.2753591 L462.644611,4.846 L472.427218,35.8427045 L483.627878,17.589 L491.291809,34.568 L499.146385,27.3934146 L504.673007,49.734 L514.220742,29.111 L525.747217,83.4015162 L533.37608,30.333 L544.809616,35.178 L556.308007,30.333 L564.257608,58.5661609 L571.570016,29.111 L582.186185,41.1186397 L592.615144,32.755 L598.332411,63.087 L607.743135,33.3063927 L615.544078,60.055 L627.038478,30.942 L636.988751,35.465731 L645.35249,32.4592612 L649.967411,58.24 L657.628349,30.333 L667.754125,49.6052035 L678.67248,31.535 L682.442084,69.153 L688.745039,32.2220643 L693.937482,66.12 L697.769947,33.365 L707.319678,26.688 L711.978399,39.0956896 L716.869409,27.3 L724.530347,37.009 L732.190287,31.535 L737.912542,49.734 L745.572482,29.723 L755.121216,35.789 L762.785147,31.535 L768.456248,38.0562592 L774.221676,31.535 L785.71408,51.565 L797.147616,24.266 L804.474845,37.3988852 L814.361278,30.942 L822.483721,60.4967737 L830.499217,31.1351946 L835.403413,41.245 L841.477312,30.4303811 L846.895818,44.887 L854.499882,24.876 L862.162816,35.178 L868.118716,17.4091222 L873.172459,29.4028106 L878.225358,26.8537918 L881.318153,36.399 L886.996507,20.2817453 L890.868882,38.822 L896.584153,34.568" id="Stroke-2660"></path>
                </g>
            </g>
        </g>
    </g>
</svg>
