
<svg width="60px" height="60px" viewBox="0 0 60 60" version="1.1" xmlns="http://www.w3.org/2000/svg" xmlns:xlink="http://www.w3.org/1999/xlink">
    <defs>
        <path d="M37.516129,11.8709677 L29.1935484,11.8709677 L26.6774194,8.19354839 C26.5806452,8.09677419 26.483871,8 26.2903226,8 L19.7096774,8 C19.516129,8 19.4193548,8.09677419 19.3225806,8.19354839 L16.7096774,11.8709677 L8.48387097,11.8709677 C8.19354839,11.8709677 8,12.0645161 8,12.3548387 L8,20.0967742 C8,20.2903226 8.09677419,20.3870968 8.29032258,20.483871 C11.9677419,22.6129032 16.0322581,23.8709677 20.1935484,24.2580645 L20.1935484,25.9032258 C20.1935484,26.1935484 20.3870968,26.3870968 20.6774194,26.3870968 L25.3225806,26.3870968 C25.6129032,26.3870968 25.8064516,26.1935484 25.8064516,25.9032258 L25.8064516,24.2580645 C31.0322581,23.7741935 35.1935484,21.9354839 37.7096774,20.483871 C37.9032258,20.3870968 38,20.1935484 38,20.0967742 L38,12.3548387 C38,12.0645161 37.8064516,11.8709677 37.516129,11.8709677 Z M20,8.96774194 L26.0967742,8.96774194 L28.1290323,11.8709677 L17.8709677,11.8709677 L20,8.96774194 Z M24.8387097,25.4193548 L21.1612903,25.4193548 L21.1612903,22.516129 L24.8387097,22.516129 L24.8387097,25.4193548 Z M37.0322581,19.8064516 C34.516129,21.1612903 30.7419355,22.8064516 25.8064516,23.2903226 L25.8064516,22.0322581 C25.8064516,21.7419355 25.6129032,21.5483871 25.3225806,21.5483871 L20.6774194,21.5483871 C20.3870968,21.5483871 20.1935484,21.7419355 20.1935484,22.0322581 L20.1935484,23.2903226 C16.3225806,22.9032258 12.4516129,21.7419355 8.96774194,19.8064516 L8.96774194,12.8387097 L37.0322581,12.8387097 L37.0322581,19.8064516 Z M37.0322581,33.1612903 L37.0322581,22.516129 L38,22.516129 L38,33.6451613 C38,33.9354839 37.8064516,34.1290323 37.516129,34.1290323 L8.48387097,34.1290323 C8.19354839,34.1290323 8,33.9354839 8,33.6451613 L8,22.516129 L8.96774194,22.516129 L8.96774194,33.1612903 L37.0322581,33.1612903 Z" id="path-1"></path>
    </defs>
    <g id="🛠Symbols-Alerts" stroke="none" stroke-width="1" fill="none" fill-rule="evenodd">
        <g id="Alert-Message/Custom">
            <g id="/Status-Color-blue3" fill="#1479C9">
                <rect id="Rectangle-2-Copy-50" x="0" y="0" width="60" height="60"></rect>
            </g>
            <g id="/Alert-Icons/px-fea:cases" transform="translate(15.000000, 15.000000)">
                <g id="px-fea:cases" transform="translate(-8.000000, -6.000000)">
                    <rect id="Container" x="0" y="0" width="46" height="42"></rect>
                    <mask id="mask-2" fill="white">
                        <use xlink:href="#path-1"></use>
                    </mask>
                    <use id="Mask" fill="#4C6472" fill-rule="nonzero" xlink:href="#path-1"></use>
                    <g id="/$white-Icon-Color" mask="url(#mask-2)" fill="#FFFFFF">
                        <rect id="Rectangle-Copy-3" x="0" y="0" width="46" height="42"></rect>
                    </g>
                </g>
            </g>
        </g>
    </g>
</svg>
